# xmcd
#
# Track frame offsets: 
#        150
#        18867
#        35252
#        51177
#        74946
#        90489
#        103528
#        116152
#        128479
#        151272
#        167515
#        190923
#
# Disc length: 2863 seconds
#
# Revision: 0
# Processed by: cddbd v1.5.1PL0 Copyright (c) Steve Scherf et al.
# Submitted via: ExactAudioCopy v0.95a5
#
DISCID=960b2d0c
DTITLE=Richard Chon - Li'l World
DYEAR=1999
DGENRE=Swing
TTITLE0=Cajon Stomp/Dickie's Dream
TTITLE1=Swingin' Out West
TTITLE2=Li'l World
TTITLE3=Pale Moon
TTITLE4=Borderland
TTITLE5=Stompin' at Decca
TTITLE6=Texas Blues
TTITLE7=Uptown Rhaposdy
TTITLE8=Nuages
TTITLE9=Kern County Breakdown
TTITLE10=Big Chief
TTITLE11=Arirang
EXTD=
EXTT0=
EXTT1=
EXTT2=
EXTT3=
EXTT4=
EXTT5=
EXTT6=
EXTT7=
EXTT8=
EXTT9=
EXTT10=
EXTT11=
PLAYORDER=
